# Aspose.3D Wavefront OBJ Exporter
# Copyright 2004-2022 Aspose Pty Ltd.
# File created: 02/28/2023 08:22:58

mtllib material.lib

#
# object PaperAirplane
#

v 7.5 6.89958238601684576 -8.17169380187988282
v 0 3.62134552001953128 7.5805983543395996
v 3.79885768890380864 5.14547967910766602 0.2370929718017578
v -7.5 6.55292510986328128 -8.24400806427001952
v -3.79885768890380864 4.7988224029541016 0.16477909684181214
v 7.806255641895632E-18 3.57246398925781248 7.570401668548584
v -8.577437781340045E-18 3.55224442481994632 -0.09526146948337554
v -8.311228891780064E-17 3.76948261260986336 -7.17855548858642578
v 0.94205886125564576 6.44056463241577152 -6.62135791778564456
v 0.659212589263916 5.01552295684814453 0.20998351275920868
v -0.94205886125564576 6.44056463241577152 -6.62135791778564456
v -0.659212589263916 5.01552295684814453 0.20998351275920868
v 7.5 6.91443014144897456 -8.16859722137451172
v -8.311228891780064E-17 3.99322271347045904 -1.31766450405120848
v 0.57496941089630128 5.5530376434326172 -0.99228167533874512
v 0.51409983634948728 5.2902841567993164 0.26729971170425416
v 3.79885768890380864 5.16032791137695312 0.2401902973651886
v -0.57496941089630128 5.5530376434326172 -0.99228167533874512
v -0.51409983634948728 5.2902841567993164 0.26729971170425416
v 0.91557049751281744 6.45541286468505856 -6.61826038360595704
v 0.51409983634948728 5.03037071228027344 0.21308088302612304
v -0.91557049751281744 6.45541286468505856 -6.61826038360595704
v -0.51409983634948728 5.03037071228027344 0.21308088302612304
# 23 vertices

vn 0.0422348603606224 -0.9823830127716064 -0.18204379081726076
vn 0.03214658796787262 -0.98065751791000368 -0.19307383894920348
vn 0.03068316541612148 -0.98038887977600096 -0.19466958940029144
vn 0.03068316541612148 -0.98038887977600096 -0.19466958940029144
vn 0.03214658796787262 -0.98065751791000368 -0.19307383894920348
vn 0.02858232520520687 -0.97999507188796992 -0.1969584971666336
vn 0.02858232520520687 -0.97999513149261472 -0.1969584971666336
vn 0.92922294139862064 -0.36918941140174864 -0.01561305578798055
vn 0.92988604307174688 -0.36747005581855776 -0.01666628196835518
vn 0.93386811017990112 -0.35686835646629332 -0.0231365580111742
vn 0.93386805057525632 -0.35686832666397096 -0.0231365580111742
vn 0.91639977693557744 -0.40024793148040768 0.00360322138294577
vn 0.91639977693557744 -0.40024790167808536 0.00360322138294577
vn 0.92988604307174688 -0.36747005581855776 -0.01666628196835518
vn 0.92922294139862064 -0.36918941140174864 -0.01561305578798055
vn 0.07032637298107147 -0.97897630929946896 -0.19146655499935152
vn 0.05111650377511978 -0.97589862346649168 -0.2121528387069702
vn 0.05356206744909286 -0.9763338565826416 -0.209531307220459
vn 0.05111650377511978 -0.97589862346649168 -0.2121528387069702
vn 0.04762354120612144 -0.97525531053543088 -0.21589115262031556
vn 0.04762354120612144 -0.97525537014007568 -0.21589115262031556
vn 0.05356206744909286 -0.9763338565826416 -0.209531307220459
vn -0.92922294139862064 -0.36918941140174864 -0.01561305578798055
vn -0.93386805057525632 -0.35686832666397096 -0.0231365580111742
vn -0.93386811017990112 -0.35686835646629332 -0.0231365580111742
vn -0.92988604307174688 -0.36747005581855776 -0.01666628196835518
vn -0.91639977693557744 -0.40024793148040768 0.00360322138294577
vn -0.92922294139862064 -0.36918941140174864 -0.01561305578798055
vn -0.92988604307174688 -0.36747005581855776 -0.01666628196835518
vn -0.91639977693557744 -0.40024790167808536 0.00360322138294577
vn 0.04037277773022651 0.97352159023284912 0.22500142455101012
vn 0.0369868092238903 0.97492080926895136 0.21945653855800628
vn 0.03767085075378418 0.97464179992675776 0.22057729959487916
vn 0.0369868092238903 0.97492080926895136 0.21945653855800628
vn 0.03571812063455581 0.97543388605117792 0.21737711131572724
vn 0.03571812063455581 0.97543394565582272 0.21737711131572724
vn 0.03767085075378418 0.97464179992675776 0.22057729959487916
vn -0.95898675918579104 0.28312733769416808 0.01354286260902881
vn -0.95151460170745856 0.30127266049385072 0.06208628043532372
vn -0.95151460170745856 0.30127263069152832 0.06208627671003342
vn -0.9589649438858032 0.28319278359413148 0.01371437590569257
vn -0.96087658405303952 0.27696567773818968 -0.00249335239641368
vn -0.95898675918579104 0.28312733769416808 0.01354286260902881
vn -0.9589649438858032 0.28319278359413148 0.01371437590569257
vn -0.96087658405303952 0.27696567773818968 -0.00249335262924432
vn -0.15102225542068482 0.96139812469482416 0.23001305758953096
vn -0.14102424681186676 0.95977127552032464 0.24279899895191192
vn -0.1384994089603424 0.95932114124298096 0.24601012468338012
vn -0.1384994089603424 0.95932114124298096 0.24601012468338012
vn -0.14102424681186676 0.95977127552032464 0.24279899895191192
vn -0.13378307223320008 0.9584380388259888 0.25198939442634584
vn -0.13378307223320008 0.958437979221344 0.25198933482170104
vn 0.95898675918579104 0.28312733769416808 0.01354286633431911
vn 0.9589649438858032 0.28319278359413148 0.01371437963098287
vn 0.95151460170745856 0.30127263069152832 0.06208629161119461
vn 0.95151460170745856 0.30127266049385072 0.06208629533648491
vn 0.96087658405303952 0.27696567773818968 -0.00249335239641368
vn 0.96087658405303952 0.27696567773818968 -0.00249335262924432
vn 0.9589649438858032 0.28319278359413148 0.01371437963098287
vn 0.95898675918579104 0.28312733769416808 0.01354286633431911
vn -0.04037479683756828 0.9819140434265136 0.18497200310230256
vn -0.0300341434776783 0.9803429245948792 0.1950020343065262
vn -0.03137047216296196 0.98055744171142576 0.19370847940444948
vn -0.0300341434776783 0.9803429245948792 0.1950020343065262
vn -0.02810051292181015 0.98002642393112176 0.19687236845493316
vn -0.02810050919651985 0.98002636432647712 0.19687233865261076
vn -0.03137047216296196 0.98055744171142576 0.19370847940444948
vn -0.9467676281929016 0.32184267044067384 0.00696544209495186
vn -0.94644045829772944 0.32269841432571412 0.01077951211482286
vn -0.94644051790237424 0.32269841432571412 0.01077951397746801
vn -0.94671958684921264 0.32197102904319764 0.00753631303086876
vn -0.94754433631896976 0.31961128115653992 -0.00287726451642811
vn -0.9467676281929016 0.32184267044067384 0.00696544209495186
vn -0.94671958684921264 0.32197102904319764 0.00753631303086876
vn -0.94754433631896976 0.31961131095886232 -0.00287726474925875
vn -0.07181823998689651 0.97872608900070192 0.192191019654274
vn -0.05584023520350456 0.9760432839393616 0.2102883607149124
vn -0.05345610529184341 0.97559434175491328 0.2129749357700348
vn -0.05345610529184341 0.97559434175491328 0.2129749357700348
vn -0.05584023520350456 0.9760432839393616 0.2102883607149124
vn -0.0500217117369175 0.9749250411987304 0.21683865785598756
vn -0.05002171546220779 0.97492498159408576 0.21683865785598756
vn 0.9467676281929016 0.32184267044067384 0.00696544209495186
vn 0.94671958684921264 0.32197102904319764 0.00753631303086876
vn 0.94644051790237424 0.32269841432571412 0.01077951397746801
vn 0.94644045829772944 0.32269841432571412 0.01077951211482286
vn 0.94754433631896976 0.31961128115653992 -0.00287726451642811
vn 0.94754433631896976 0.31961131095886232 -0.00287726474925875
vn 0.94671958684921264 0.32197102904319764 0.00753631303086876
vn 0.9467676281929016 0.32184267044067384 0.00696544209495186
# 90 vertex normals

vt 0 0.35526904463768004 0
vt 0.5 0.17763452231884002 0
vt 0.5 0.35526904463768004 0
vt 1 0 0
vt 1 0.35526904463768004 0
vt 1 0.5 0
vt 0.5 0.5 0
vt 0 0.5 0
vt 0 0.35526904463768004 0
vt 0.5 0.35526904463768004 0
vt 0.5 0.17763452231884002 0
vt 1 0.35526904463768004 0
vt 1 0 0
vt 0.5 0.5 0
vt 1 0.5 0
vt 0 0.5 0
vt 0 0.35526904463768004 0
vt 0.5 0.17763452231884002 0
vt 0.5 0.35526904463768004 0
vt 1 0 0
vt 1 0.35526904463768004 0
vt 1 0.5 0
vt 0.5 0.5 0
vt 0 0.5 0
vt 0 0.35526904463768004 0
vt 0.5 0.35526904463768004 0
vt 0.5 0.17763452231884002 0
vt 1 0.35526904463768004 0
vt 1 0 0
vt 0.5 0.5 0
vt 1 0.5 0
vt 0 0.5 0
vt 0 0.35526904463768004 0
vt 0.5 0.17763452231884002 0
vt 0.5 0.35526904463768004 0
vt 1 0 0
vt 1 0.35526904463768004 0
vt 1 0.5 0
vt 0.5 0.5 0
vt 0 0.5 0
vt 0 0.35526904463768004 0
vt 0.5 0.35526904463768004 0
vt 0.5 0.17763452231884002 0
vt 1 0.35526904463768004 0
vt 1 0 0
vt 0.5 0.5 0
vt 1 0.5 0
vt 0 0.5 0
# 48 texture coords

g PaperAirplane
usemtl blinn2
s 1
f 2/1/1 10/3/2 3/2/3
f 3/2/4 10/3/5 9/5/6 1/4/7
f 10/3/8 7/7/9 8/6/10 9/5/11
f 2/1/12 6/8/13 7/7/14 10/3/15
f 2/9/16 5/11/17 12/10/18
f 5/11/19 4/13/20 11/12/21 12/10/22
f 12/10/23 11/12/24 8/15/25 7/14/26
f 2/9/27 12/10/28 7/14/29 6/16/30
f 2/17/31 17/18/32 16/19/33
f 17/18/34 13/20/35 15/21/36 16/19/37
f 16/19/38 15/21/39 14/22/40 7/23/41
f 2/17/42 16/19/43 7/23/44 6/24/45
f 2/25/46 19/26/47 5/27/48
f 5/27/49 19/26/50 18/28/51 4/29/52
f 19/26/53 7/30/54 14/31/55 18/28/56
f 2/25/57 6/32/58 7/30/59 19/26/60
f 2/33/61 17/34/62 21/35/63
f 17/34/64 13/36/65 20/37/66 21/35/67
f 21/35/68 20/37/69 8/38/70 7/39/71
f 2/33/72 21/35/73 7/39/74 6/40/75
f 2/41/76 23/42/77 5/43/78
f 5/43/79 23/42/80 22/44/81 4/45/82
f 23/42/83 7/46/84 8/47/85 22/44/86
f 2/41/87 6/48/88 7/46/89 23/42/90
#24 polygons

